<svg width="424" height="358" viewBox="0 0 424 358" fill="none" xmlns="http://www.w3.org/2000/svg">
<g filter="url(#filter0_dddd_9_4858)">
<mask id="path-1-inside-1_9_4858" fill="white">
<path d="M23.7343 28.2878C23.7343 16.1376 33.5841 6.28784 45.7343 6.28784H358.734C370.885 6.28784 380.734 16.1376 380.734 28.2878V388.288C380.734 400.438 370.885 410.288 358.734 410.288H45.7343C33.584 410.288 23.7343 400.438 23.7343 388.288V28.2878Z"/>
</mask>
<path d="M23.7343 28.2878C23.7343 16.1376 33.5841 6.28784 45.7343 6.28784H358.734C370.885 6.28784 380.734 16.1376 380.734 28.2878V388.288C380.734 400.438 370.885 410.288 358.734 410.288H45.7343C33.584 410.288 23.7343 400.438 23.7343 388.288V28.2878Z" fill="#1B1E21"/>
<path d="M23.7343 28.2878C23.7343 16.1376 33.5841 6.28784 45.7343 6.28784H358.734C370.885 6.28784 380.734 16.1376 380.734 28.2878V388.288C380.734 400.438 370.885 410.288 358.734 410.288H45.7343C33.584 410.288 23.7343 400.438 23.7343 388.288V28.2878Z" fill="url(#paint0_linear_9_4858)" fill-opacity="0.32" style="mix-blend-mode:luminosity"/>
<path d="M45.7343 7.78784H358.734V4.78784H45.7343V7.78784ZM379.234 28.2878V388.288H382.234V28.2878H379.234ZM358.734 408.788H45.7343V411.788H358.734V408.788ZM25.2343 388.288V28.2878H22.2343V388.288H25.2343ZM45.7343 408.788C34.4125 408.788 25.2343 399.61 25.2343 388.288H22.2343C22.2343 401.267 32.7556 411.788 45.7343 411.788V408.788ZM379.234 388.288C379.234 399.61 370.056 408.788 358.734 408.788V411.788C371.713 411.788 382.234 401.267 382.234 388.288H379.234ZM358.734 7.78784C370.056 7.78784 379.234 16.966 379.234 28.2878H382.234C382.234 15.3091 371.713 4.78784 358.734 4.78784V7.78784ZM45.7343 4.78784C32.7556 4.78784 22.2343 15.3092 22.2343 28.2878H25.2343C25.2343 16.966 34.4125 7.78784 45.7343 7.78784V4.78784Z" fill="#DBDEE1" fill-opacity="0.2" mask="url(#path-1-inside-1_9_4858)"/>
<path d="M61.5903 60.5678C60.5823 60.5678 59.5976 60.4418 58.6363 60.1898C57.675 59.9378 56.7976 59.5598 56.0043 59.0558C55.211 58.5518 54.5576 57.9218 54.0443 57.1658C53.5403 56.4098 53.237 55.5232 53.1343 54.5058H57.3203C57.4603 55.1218 57.7263 55.6398 58.1183 56.0598C58.5196 56.4798 59.033 56.8018 59.6583 57.0258C60.293 57.2498 61.0163 57.3618 61.8283 57.3618C62.4723 57.3618 63.0836 57.2685 63.6623 57.0818C64.241 56.8952 64.7123 56.6105 65.0763 56.2278C65.4403 55.8452 65.6223 55.3645 65.6223 54.7858C65.6223 54.0952 65.3703 53.5772 64.8663 53.2318C64.3623 52.8772 63.6763 52.5972 62.8083 52.3918L59.0143 51.5658C57.941 51.3418 57.003 50.9965 56.2003 50.5298C55.407 50.0538 54.7956 49.4378 54.3663 48.6818C53.937 47.9165 53.7223 46.9878 53.7223 45.8958C53.7223 44.6358 54.0676 43.5485 54.7583 42.6338C55.4583 41.7192 56.4056 41.0192 57.6003 40.5338C58.8043 40.0392 60.153 39.7918 61.6463 39.7918C63.3356 39.7918 64.759 40.0672 65.9163 40.6178C67.083 41.1592 67.9743 41.8965 68.5903 42.8298C69.2063 43.7538 69.519 44.7852 69.5283 45.9238H65.4403C65.3656 45.2238 65.151 44.6638 64.7963 44.2438C64.4416 43.8145 63.9843 43.5065 63.4243 43.3198C62.8736 43.1238 62.2436 43.0258 61.5343 43.0258C60.3116 43.0258 59.4203 43.2732 58.8603 43.7678C58.3003 44.2625 58.0203 44.8365 58.0203 45.4898C58.0203 46.1058 58.2303 46.6052 58.6503 46.9878C59.0796 47.3612 59.7656 47.6458 60.7083 47.8418L64.2223 48.5978C65.529 48.8498 66.5883 49.2512 67.4003 49.8018C68.2123 50.3432 68.805 51.0012 69.1783 51.7758C69.5516 52.5505 69.7383 53.4185 69.7383 54.3798C69.7383 55.6025 69.3883 56.6805 68.6883 57.6138C67.9976 58.5378 67.041 59.2612 65.8183 59.7838C64.5956 60.3065 63.1863 60.5678 61.5903 60.5678ZM78.797 60.5678C77.3596 60.5678 76.095 60.2692 75.003 59.6718C73.9203 59.0652 73.0756 58.2112 72.469 57.1098C71.8623 56.0085 71.559 54.7112 71.559 53.2178C71.559 51.7712 71.8343 50.4692 72.385 49.3118C72.945 48.1452 73.7476 47.2258 74.793 46.5538C75.8383 45.8725 77.103 45.5318 78.587 45.5318C80.0616 45.5318 81.2983 45.8445 82.297 46.4698C83.2956 47.0858 84.0516 47.9492 84.565 49.0598C85.0783 50.1612 85.335 51.4352 85.335 52.8818V53.9878H75.605C75.605 54.7252 75.7263 55.3692 75.969 55.9198C76.2116 56.4612 76.5616 56.8812 77.019 57.1798C77.4856 57.4692 78.0456 57.6138 78.699 57.6138C79.399 57.6138 80.0103 57.4645 80.533 57.1658C81.0556 56.8672 81.4243 56.3772 81.639 55.6958H85.321C85.153 56.7225 84.7423 57.5998 84.089 58.3278C83.4356 59.0558 82.6423 59.6112 81.709 59.9938C80.7756 60.3765 79.805 60.5678 78.797 60.5678ZM75.605 51.5518H81.513C81.513 50.9732 81.401 50.4412 81.177 49.9558C80.9623 49.4705 80.6356 49.0878 80.197 48.8078C79.7676 48.5278 79.2263 48.3878 78.573 48.3878C77.9476 48.3878 77.411 48.5418 76.963 48.8498C76.5243 49.1485 76.1836 49.5405 75.941 50.0258C75.7076 50.5112 75.5956 51.0198 75.605 51.5518ZM94.0198 60.5678C92.6758 60.5678 91.4765 60.2692 90.4218 59.6718C89.3671 59.0745 88.5365 58.2205 87.9298 57.1098C87.3325 55.9898 87.0338 54.6552 87.0338 53.1058C87.0338 51.6125 87.3231 50.2965 87.9018 49.1578C88.4805 48.0192 89.2925 47.1325 90.3378 46.4978C91.3925 45.8538 92.6198 45.5318 94.0198 45.5318C95.2331 45.5318 96.2785 45.7792 97.1558 46.2738C98.0425 46.7685 98.7378 47.4358 99.2418 48.2758C99.7551 49.1158 100.049 50.0538 100.124 51.0898H96.7218C96.6565 50.7072 96.5211 50.3292 96.3158 49.9558C96.1105 49.5732 95.8211 49.2605 95.4478 49.0178C95.0745 48.7658 94.6078 48.6398 94.0478 48.6398C93.0958 48.6398 92.3211 49.0085 91.7238 49.7458C91.1358 50.4738 90.8418 51.5845 90.8418 53.0778C90.8418 54.4872 91.1311 55.6072 91.7098 56.4378C92.2885 57.2592 93.0958 57.6698 94.1318 57.6698C94.6825 57.6698 95.1398 57.5345 95.5038 57.2638C95.8771 56.9932 96.1665 56.6712 96.3718 56.2978C96.5771 55.9152 96.7078 55.5605 96.7638 55.2338H100.082C100.016 56.2325 99.7271 57.1378 99.2138 57.9498C98.7005 58.7525 98.0005 59.3918 97.1138 59.8678C96.2365 60.3345 95.2051 60.5678 94.0198 60.5678ZM107.697 60.5678C107.025 60.5678 106.362 60.4652 105.709 60.2598C105.065 60.0545 104.477 59.7512 103.945 59.3498C103.413 58.9485 102.984 58.4538 102.657 57.8658C102.34 57.2778 102.181 56.5965 102.181 55.8218V45.8118H106.269V55.3038C106.269 55.9758 106.488 56.5265 106.927 56.9558C107.366 57.3852 108.01 57.5998 108.859 57.5998C109.662 57.5998 110.296 57.3945 110.763 56.9838C111.239 56.5638 111.477 55.9805 111.477 55.2338V45.8118H115.523V60.2878H112.443L111.967 57.4178C111.799 58.2672 111.482 58.9205 111.015 59.3778C110.558 59.8258 110.03 60.1338 109.433 60.3018C108.845 60.4792 108.266 60.5678 107.697 60.5678ZM118.537 60.2878V45.8118H122.471V49.2418C122.705 48.5045 123.031 47.8605 123.451 47.3098C123.881 46.7498 124.399 46.3158 125.005 46.0078C125.612 45.6905 126.298 45.5318 127.063 45.5318C127.194 45.5318 127.315 45.5412 127.427 45.5598C127.549 45.5692 127.637 45.5878 127.693 45.6158V49.5078C127.609 49.4705 127.507 49.4472 127.385 49.4378C127.273 49.4285 127.171 49.4192 127.077 49.4098C126.275 49.3445 125.589 49.3678 125.019 49.4798C124.45 49.5918 123.988 49.7832 123.633 50.0538C123.279 50.3245 123.022 50.6558 122.863 51.0478C122.705 51.4398 122.625 51.8785 122.625 52.3638V60.2878H118.537ZM129.558 60.2878V45.8118H133.464V60.2878H129.558ZM129.516 43.7398V40.0578H133.492V43.7398H129.516ZM142.665 60.4418C141.387 60.4418 140.397 60.2785 139.697 59.9518C139.007 59.6252 138.526 59.1678 138.255 58.5798C137.994 57.9918 137.863 57.3105 137.863 56.5358V48.6538H135.511V45.8118H137.989L139.025 41.4438H141.937V45.7978H145.157V48.6538H141.937L141.965 56.3678C141.965 56.7225 142.007 56.9885 142.091 57.1658C142.185 57.3338 142.325 57.4458 142.511 57.5018C142.707 57.5485 142.955 57.5718 143.253 57.5718H145.199V60.0918C145.003 60.1758 144.709 60.2552 144.317 60.3298C143.925 60.4045 143.375 60.4418 142.665 60.4418ZM149.778 64.9078C148.788 64.9078 148.088 64.8238 147.678 64.6558C147.267 64.4972 147.062 64.4178 147.062 64.4178V61.8138L148.504 61.8698C149.129 61.9072 149.633 61.8745 150.016 61.7718C150.398 61.6785 150.688 61.5525 150.884 61.3938C151.08 61.2352 151.22 61.0672 151.304 60.8898C151.397 60.7218 151.462 60.5865 151.5 60.4838L151.766 59.6858L146.138 45.8118H150.184L153.656 55.2478L157.156 45.8118H161.16L155.294 60.3718C154.79 61.6038 154.253 62.5465 153.684 63.1998C153.124 63.8532 152.517 64.3012 151.864 64.5438C151.22 64.7865 150.524 64.9078 149.778 64.9078Z" fill="#D7DFE5"/>
<path opacity="0.5" d="M51.7343 94.2878C51.7343 89.8696 55.316 86.2878 59.7343 86.2878H344.734C349.153 86.2878 352.734 89.8696 352.734 94.2878V182.288C352.734 186.706 349.153 190.288 344.734 190.288H59.7343C55.316 190.288 51.7343 186.706 51.7343 182.288V94.2878Z" fill="#D6DFE6" fill-opacity="0.2"/>
<path opacity="0.5" d="M51.7343 218.288C51.7343 213.87 55.316 210.288 59.7343 210.288H344.734C349.153 210.288 352.734 213.87 352.734 218.288V306.288C352.734 310.706 349.153 314.288 344.734 314.288H59.7343C55.316 314.288 51.7343 310.706 51.7343 306.288V218.288Z" fill="#D6DFE6" fill-opacity="0.2"/>
<path d="M51.7343 356.288C51.7343 344.138 61.5841 334.288 73.7343 334.288H157.734C169.885 334.288 179.734 344.138 179.734 356.288V360.288C179.734 372.438 169.885 382.288 157.734 382.288H73.7343C61.5841 382.288 51.7343 372.438 51.7343 360.288V356.288Z" fill="#00A7FD"/>
<path d="M69.1743 366.288V351.388H74.7143C75.7276 351.388 76.621 351.575 77.3943 351.948C78.181 352.308 78.7943 352.841 79.2343 353.548C79.6743 354.241 79.8943 355.088 79.8943 356.088C79.8943 357.115 79.6476 357.988 79.1543 358.708C78.6743 359.428 78.021 359.961 77.1943 360.308L80.6143 366.288H77.5343L73.8743 359.748L75.6343 360.788H71.8943V366.288H69.1743ZM71.8943 358.388H74.7543C75.2476 358.388 75.6743 358.295 76.0343 358.108C76.3943 357.908 76.6743 357.635 76.8743 357.288C77.0743 356.941 77.1743 356.541 77.1743 356.088C77.1743 355.621 77.0743 355.221 76.8743 354.888C76.6743 354.541 76.3943 354.275 76.0343 354.088C75.6743 353.888 75.2476 353.788 74.7543 353.788H71.8943V358.388ZM86.7315 366.528C85.6115 366.528 84.6315 366.275 83.7915 365.768C82.9515 365.261 82.2982 364.575 81.8315 363.708C81.3648 362.841 81.1315 361.881 81.1315 360.828C81.1315 359.735 81.3648 358.768 81.8315 357.928C82.3115 357.075 82.9582 356.401 83.7715 355.908C84.5982 355.415 85.5182 355.168 86.5315 355.168C87.3848 355.168 88.1315 355.308 88.7715 355.588C89.4248 355.868 89.9782 356.255 90.4315 356.748C90.8848 357.241 91.2315 357.808 91.4715 358.448C91.7115 359.075 91.8315 359.755 91.8315 360.488C91.8315 360.675 91.8182 360.868 91.7915 361.068C91.7782 361.268 91.7448 361.441 91.6915 361.588H83.2915V359.588H90.2115L88.9715 360.528C89.0915 359.915 89.0582 359.368 88.8715 358.888C88.6982 358.408 88.4048 358.028 87.9915 357.748C87.5915 357.468 87.1048 357.328 86.5315 357.328C85.9848 357.328 85.4982 357.468 85.0715 357.748C84.6448 358.015 84.3182 358.415 84.0915 358.948C83.8782 359.468 83.7982 360.101 83.8515 360.848C83.7982 361.515 83.8848 362.108 84.1115 362.628C84.3515 363.135 84.6982 363.528 85.1515 363.808C85.6182 364.088 86.1515 364.228 86.7515 364.228C87.3515 364.228 87.8582 364.101 88.2715 363.848C88.6982 363.595 89.0315 363.255 89.2715 362.828L91.3915 363.868C91.1782 364.388 90.8448 364.848 90.3915 365.248C89.9382 365.648 89.3982 365.961 88.7715 366.188C88.1582 366.415 87.4782 366.528 86.7315 366.528ZM93.8176 366.288V351.148H96.4376V366.288H93.8176ZM98.8567 366.288V355.408H101.477V366.288H98.8567ZM98.8567 354.188V351.388H101.477V354.188H98.8567ZM107.196 366.528C106.436 366.528 105.776 366.401 105.216 366.148C104.656 365.895 104.222 365.535 103.916 365.068C103.609 364.588 103.456 364.035 103.456 363.408C103.456 362.808 103.589 362.275 103.856 361.808C104.122 361.328 104.536 360.928 105.096 360.608C105.656 360.288 106.362 360.061 107.216 359.928L110.776 359.348V361.348L107.716 361.868C107.196 361.961 106.809 362.128 106.556 362.368C106.302 362.608 106.176 362.921 106.176 363.308C106.176 363.681 106.316 363.981 106.596 364.208C106.889 364.421 107.249 364.528 107.676 364.528C108.222 364.528 108.702 364.415 109.116 364.188C109.542 363.948 109.869 363.621 110.096 363.208C110.336 362.795 110.456 362.341 110.456 361.848V359.048C110.456 358.581 110.269 358.195 109.896 357.888C109.536 357.568 109.056 357.408 108.456 357.408C107.896 357.408 107.396 357.561 106.956 357.868C106.529 358.161 106.216 358.555 106.016 359.048L103.876 358.008C104.089 357.435 104.422 356.941 104.876 356.528C105.342 356.101 105.889 355.768 106.516 355.528C107.142 355.288 107.822 355.168 108.556 355.168C109.449 355.168 110.236 355.335 110.916 355.668C111.596 355.988 112.122 356.441 112.496 357.028C112.882 357.601 113.076 358.275 113.076 359.048V366.288H110.596V364.428L111.156 364.388C110.876 364.855 110.542 365.248 110.156 365.568C109.769 365.875 109.329 366.115 108.836 366.288C108.342 366.448 107.796 366.528 107.196 366.528ZM121.437 366.528C120.651 366.528 119.924 366.375 119.257 366.068C118.604 365.748 118.084 365.295 117.697 364.708L117.957 364.188V366.288H115.497V351.148H118.117V357.568L117.717 357.028C118.091 356.441 118.597 355.988 119.237 355.668C119.877 355.335 120.617 355.168 121.457 355.168C122.484 355.168 123.411 355.421 124.237 355.928C125.064 356.435 125.717 357.115 126.197 357.968C126.691 358.821 126.937 359.781 126.937 360.848C126.937 361.901 126.697 362.861 126.217 363.728C125.737 364.595 125.084 365.281 124.257 365.788C123.431 366.281 122.491 366.528 121.437 366.528ZM121.137 364.128C121.737 364.128 122.271 363.988 122.737 363.708C123.204 363.428 123.564 363.041 123.817 362.548C124.084 362.055 124.217 361.488 124.217 360.848C124.217 360.208 124.084 359.648 123.817 359.168C123.564 358.675 123.204 358.288 122.737 358.008C122.271 357.715 121.737 357.568 121.137 357.568C120.564 357.568 120.044 357.708 119.577 357.988C119.124 358.268 118.764 358.661 118.497 359.168C118.244 359.661 118.117 360.221 118.117 360.848C118.117 361.488 118.244 362.055 118.497 362.548C118.764 363.041 119.124 363.428 119.577 363.708C120.044 363.988 120.564 364.128 121.137 364.128ZM128.935 366.288V355.408H131.555V366.288H128.935ZM128.935 354.188V351.388H131.555V354.188H128.935ZM133.974 366.288V351.148H136.594V366.288H133.974ZM139.013 366.288V355.408H141.633V366.288H139.013ZM139.013 354.188V351.388H141.633V354.188H139.013ZM149.012 366.408C147.785 366.408 146.832 366.075 146.152 365.408C145.485 364.728 145.152 363.775 145.152 362.548V357.748H143.272V355.408H143.472C144.005 355.408 144.419 355.268 144.712 354.988C145.005 354.708 145.152 354.301 145.152 353.768V352.928H147.772V355.408H150.272V357.748H147.772V362.408C147.772 362.768 147.832 363.075 147.952 363.328C148.085 363.581 148.285 363.775 148.552 363.908C148.832 364.041 149.185 364.108 149.612 364.108C149.705 364.108 149.812 364.101 149.932 364.088C150.065 364.075 150.192 364.061 150.312 364.048V366.288C150.125 366.315 149.912 366.341 149.672 366.368C149.432 366.395 149.212 366.408 149.012 366.408ZM153.634 370.688C153.34 370.688 153.054 370.661 152.774 370.608C152.494 370.568 152.24 370.488 152.014 370.368V368.188C152.187 368.228 152.394 368.268 152.634 368.308C152.887 368.348 153.12 368.368 153.334 368.368C153.934 368.368 154.367 368.228 154.634 367.948C154.914 367.681 155.16 367.321 155.374 366.868L156.094 365.188L156.054 367.388L151.314 355.408H154.134L157.454 364.248H156.454L159.754 355.408H162.594L157.854 367.388C157.574 368.081 157.234 368.675 156.834 369.168C156.434 369.661 155.967 370.035 155.434 370.288C154.914 370.555 154.314 370.688 153.634 370.688Z" fill="#000C14"/>
</g>
<defs>
<filter id="filter0_dddd_9_4858" x="0.734314" y="0.287842" width="423" height="525" filterUnits="userSpaceOnUse" color-interpolation-filters="sRGB">
<feFlood flood-opacity="0" result="BackgroundImageFix"/>
<feColorMatrix in="SourceAlpha" type="matrix" values="0 0 0 0 0 0 0 0 0 0 0 0 0 0 0 0 0 0 127 0" result="hardAlpha"/>
<feOffset dx="1" dy="5"/>
<feGaussianBlur stdDeviation="5.5"/>
<feColorMatrix type="matrix" values="0 0 0 0 0 0 0 0 0 0 0 0 0 0 0 0 0 0 0.08 0"/>
<feBlend mode="normal" in2="BackgroundImageFix" result="effect1_dropShadow_9_4858"/>
<feColorMatrix in="SourceAlpha" type="matrix" values="0 0 0 0 0 0 0 0 0 0 0 0 0 0 0 0 0 0 127 0" result="hardAlpha"/>
<feOffset dx="2" dy="20"/>
<feGaussianBlur stdDeviation="10.5"/>
<feColorMatrix type="matrix" values="0 0 0 0 0 0 0 0 0 0 0 0 0 0 0 0 0 0 0.06 0"/>
<feBlend mode="normal" in2="effect1_dropShadow_9_4858" result="effect2_dropShadow_9_4858"/>
<feColorMatrix in="SourceAlpha" type="matrix" values="0 0 0 0 0 0 0 0 0 0 0 0 0 0 0 0 0 0 127 0" result="hardAlpha"/>
<feOffset dx="5" dy="46"/>
<feGaussianBlur stdDeviation="14"/>
<feColorMatrix type="matrix" values="0 0 0 0 0 0 0 0 0 0 0 0 0 0 0 0 0 0 0.04 0"/>
<feBlend mode="normal" in2="effect2_dropShadow_9_4858" result="effect3_dropShadow_9_4858"/>
<feColorMatrix in="SourceAlpha" type="matrix" values="0 0 0 0 0 0 0 0 0 0 0 0 0 0 0 0 0 0 127 0" result="hardAlpha"/>
<feOffset dx="10" dy="82"/>
<feGaussianBlur stdDeviation="16.5"/>
<feColorMatrix type="matrix" values="0 0 0 0 0 0 0 0 0 0 0 0 0 0 0 0 0 0 0.01 0"/>
<feBlend mode="normal" in2="effect3_dropShadow_9_4858" result="effect4_dropShadow_9_4858"/>
<feBlend mode="normal" in="SourceGraphic" in2="effect4_dropShadow_9_4858" result="shape"/>
</filter>
<linearGradient id="paint0_linear_9_4858" x1="54.5102" y1="-27.3788" x2="381.689" y2="374.85" gradientUnits="userSpaceOnUse">
<stop stop-color="#D6D7D8" stop-opacity="0"/>
<stop offset="1" stop-color="#A3D260" stop-opacity="0.06"/>
</linearGradient>
</defs>
</svg>
