<svg width="841" height="385" viewBox="0 0 841 385" fill="none" xmlns="http://www.w3.org/2000/svg">
<mask id="mask0_9_4869" style="mask-type:alpha" maskUnits="userSpaceOnUse" x="0" y="10" width="558" height="396">
<rect x="0.734314" y="10.2878" width="557" height="395" fill="url(#paint0_diamond_9_4869)"/>
</mask>
<g mask="url(#mask0_9_4869)">
<g filter="url(#filter0_dddd_9_4869)">
<g clip-path="url(#clip0_9_4869)">
<mask id="path-2-inside-1_9_4869" fill="white">
<path d="M-50.2657 56.2878C-50.2657 43.033 -39.5205 32.2878 -26.2657 32.2878H504.734C517.989 32.2878 528.734 43.033 528.734 56.2878V501.788C528.734 515.043 517.989 525.788 504.734 525.788H-26.2657C-39.5205 525.788 -50.2657 515.043 -50.2657 501.788V56.2878Z"/>
</mask>
<path d="M-50.2657 56.2878C-50.2657 43.033 -39.5205 32.2878 -26.2657 32.2878H504.734C517.989 32.2878 528.734 43.033 528.734 56.2878V501.788C528.734 515.043 517.989 525.788 504.734 525.788H-26.2657C-39.5205 525.788 -50.2657 515.043 -50.2657 501.788V56.2878Z" fill="#1B1E21"/>
<path d="M-50.2657 56.2878C-50.2657 43.033 -39.5205 32.2878 -26.2657 32.2878H504.734C517.989 32.2878 528.734 43.033 528.734 56.2878V501.788C528.734 515.043 517.989 525.788 504.734 525.788H-26.2657C-39.5205 525.788 -50.2657 515.043 -50.2657 501.788V56.2878Z" fill="url(#paint1_linear_9_4869)" fill-opacity="0.32" style="mix-blend-mode:luminosity"/>
<path opacity="0.5" d="M83.7343 88.2878C83.7343 83.8696 87.316 80.2878 91.7343 80.2878H214.734C219.153 80.2878 222.734 83.8696 222.734 88.2878V104.288C222.734 108.706 219.153 112.288 214.734 112.288H91.7343C87.316 112.288 83.7343 108.706 83.7343 104.288V88.2878Z" fill="#D6DFE6" fill-opacity="0.2"/>
<path opacity="0.5" d="M246.734 88.2878C246.734 83.8696 250.316 80.2878 254.734 80.2878H343.734C348.153 80.2878 351.734 83.8696 351.734 88.2878V104.288C351.734 108.706 348.153 112.288 343.734 112.288H254.734C250.316 112.288 246.734 108.706 246.734 104.288V88.2878Z" fill="#D6DFE6" fill-opacity="0.2"/>
<path d="M375.734 94.2878C375.734 82.1376 385.584 72.2878 397.734 72.2878H466.734C478.885 72.2878 488.734 82.1376 488.734 94.2878V98.2878C488.734 110.438 478.885 120.288 466.734 120.288H397.734C385.584 120.288 375.734 110.438 375.734 98.2878V94.2878Z" fill="#00A7FD"/>
<path d="M398.494 104.528C397.548 104.528 396.668 104.355 395.854 104.008C395.054 103.661 394.361 103.181 393.774 102.568C393.201 101.941 392.781 101.215 392.514 100.388L394.774 99.4078C395.134 100.261 395.654 100.935 396.334 101.428C397.014 101.908 397.781 102.148 398.634 102.148C399.114 102.148 399.528 102.075 399.874 101.928C400.234 101.768 400.508 101.555 400.694 101.288C400.894 101.021 400.994 100.701 400.994 100.328C400.994 99.8878 400.861 99.5278 400.594 99.2478C400.341 98.9545 399.954 98.7278 399.434 98.5678L396.574 97.6478C395.414 97.2878 394.541 96.7478 393.954 96.0278C393.368 95.3078 393.074 94.4612 393.074 93.4878C393.074 92.6345 393.281 91.8812 393.694 91.2278C394.121 90.5745 394.708 90.0678 395.454 89.7078C396.214 89.3345 397.081 89.1478 398.054 89.1478C398.948 89.1478 399.768 89.3078 400.514 89.6278C401.261 89.9345 401.901 90.3678 402.434 90.9278C402.981 91.4745 403.388 92.1212 403.654 92.8678L401.414 93.8678C401.121 93.1212 400.681 92.5478 400.094 92.1478C399.508 91.7345 398.828 91.5278 398.054 91.5278C397.601 91.5278 397.201 91.6078 396.854 91.7678C396.508 91.9145 396.234 92.1278 396.034 92.4078C395.848 92.6745 395.754 92.9945 395.754 93.3678C395.754 93.7812 395.888 94.1478 396.154 94.4678C396.421 94.7745 396.828 95.0145 397.374 95.1878L400.114 96.0478C401.301 96.4345 402.188 96.9678 402.774 97.6478C403.374 98.3278 403.674 99.1678 403.674 100.168C403.674 101.021 403.454 101.775 403.014 102.428C402.574 103.081 401.968 103.595 401.194 103.968C400.421 104.341 399.521 104.528 398.494 104.528ZM409.784 104.528C408.944 104.528 408.21 104.341 407.584 103.968C406.97 103.595 406.497 103.075 406.164 102.408C405.844 101.741 405.684 100.961 405.684 100.068V93.4078H408.304V99.8478C408.304 100.301 408.39 100.701 408.564 101.048C408.75 101.381 409.01 101.648 409.344 101.848C409.69 102.035 410.077 102.128 410.504 102.128C410.93 102.128 411.31 102.035 411.644 101.848C411.977 101.648 412.237 101.375 412.424 101.028C412.61 100.681 412.704 100.268 412.704 99.7878V93.4078H415.324V104.288H412.844V102.148L413.064 102.528C412.81 103.195 412.39 103.695 411.804 104.028C411.23 104.361 410.557 104.528 409.784 104.528ZM417.759 108.288V93.4078H420.219V95.5678L419.979 95.0278C420.352 94.4412 420.859 93.9878 421.499 93.6678C422.139 93.3345 422.879 93.1678 423.719 93.1678C424.746 93.1678 425.672 93.4212 426.499 93.9278C427.326 94.4345 427.979 95.1145 428.459 95.9678C428.952 96.8212 429.199 97.7812 429.199 98.8478C429.199 99.9012 428.959 100.861 428.479 101.728C427.999 102.595 427.346 103.281 426.519 103.788C425.692 104.281 424.752 104.528 423.699 104.528C422.912 104.528 422.186 104.375 421.519 104.068C420.866 103.748 420.346 103.295 419.959 102.708L420.379 102.188V108.288H417.759ZM423.399 102.128C423.999 102.128 424.532 101.988 424.999 101.708C425.466 101.428 425.826 101.041 426.079 100.548C426.346 100.055 426.479 99.4878 426.479 98.8478C426.479 98.2078 426.346 97.6478 426.079 97.1678C425.826 96.6745 425.466 96.2878 424.999 96.0078C424.532 95.7145 423.999 95.5678 423.399 95.5678C422.826 95.5678 422.306 95.7078 421.839 95.9878C421.386 96.2678 421.026 96.6612 420.759 97.1678C420.506 97.6612 420.379 98.2212 420.379 98.8478C420.379 99.4878 420.506 100.055 420.759 100.548C421.026 101.041 421.386 101.428 421.839 101.708C422.306 101.988 422.826 102.128 423.399 102.128ZM431.197 108.288V93.4078H433.657V95.5678L433.417 95.0278C433.79 94.4412 434.297 93.9878 434.937 93.6678C435.577 93.3345 436.317 93.1678 437.157 93.1678C438.183 93.1678 439.11 93.4212 439.937 93.9278C440.763 94.4345 441.417 95.1145 441.897 95.9678C442.39 96.8212 442.637 97.7812 442.637 98.8478C442.637 99.9012 442.397 100.861 441.917 101.728C441.437 102.595 440.783 103.281 439.957 103.788C439.13 104.281 438.19 104.528 437.137 104.528C436.35 104.528 435.623 104.375 434.957 104.068C434.303 103.748 433.783 103.295 433.397 102.708L433.817 102.188V108.288H431.197ZM436.837 102.128C437.437 102.128 437.97 101.988 438.437 101.708C438.903 101.428 439.263 101.041 439.517 100.548C439.783 100.055 439.917 99.4878 439.917 98.8478C439.917 98.2078 439.783 97.6478 439.517 97.1678C439.263 96.6745 438.903 96.2878 438.437 96.0078C437.97 95.7145 437.437 95.5678 436.837 95.5678C436.263 95.5678 435.743 95.7078 435.277 95.9878C434.823 96.2678 434.463 96.6612 434.197 97.1678C433.943 97.6612 433.817 98.2212 433.817 98.8478C433.817 99.4878 433.943 100.055 434.197 100.548C434.463 101.041 434.823 101.428 435.277 101.708C435.743 101.988 436.263 102.128 436.837 102.128ZM449.954 104.528C448.887 104.528 447.914 104.281 447.034 103.788C446.167 103.295 445.474 102.621 444.954 101.768C444.447 100.915 444.194 99.9412 444.194 98.8478C444.194 97.7545 444.447 96.7812 444.954 95.9278C445.474 95.0745 446.167 94.4012 447.034 93.9078C447.901 93.4145 448.874 93.1678 449.954 93.1678C451.021 93.1678 451.987 93.4145 452.854 93.9078C453.721 94.4012 454.407 95.0745 454.914 95.9278C455.434 96.7678 455.694 97.7412 455.694 98.8478C455.694 99.9412 455.434 100.915 454.914 101.768C454.394 102.621 453.701 103.295 452.834 103.788C451.967 104.281 451.007 104.528 449.954 104.528ZM449.954 102.128C450.541 102.128 451.054 101.988 451.494 101.708C451.947 101.428 452.301 101.041 452.554 100.548C452.821 100.041 452.954 99.4745 452.954 98.8478C452.954 98.2078 452.821 97.6478 452.554 97.1678C452.301 96.6745 451.947 96.2878 451.494 96.0078C451.054 95.7145 450.541 95.5678 449.954 95.5678C449.354 95.5678 448.827 95.7145 448.374 96.0078C447.921 96.2878 447.561 96.6745 447.294 97.1678C447.041 97.6478 446.914 98.2078 446.914 98.8478C446.914 99.4745 447.041 100.041 447.294 100.548C447.561 101.041 447.921 101.428 448.374 101.708C448.827 101.988 449.354 102.128 449.954 102.128ZM457.681 104.288V93.4078H460.141V95.8278L459.941 95.4678C460.194 94.6545 460.588 94.0878 461.121 93.7678C461.668 93.4478 462.321 93.2878 463.081 93.2878H463.721V95.6078H462.781C462.034 95.6078 461.434 95.8412 460.981 96.3078C460.528 96.7612 460.301 97.4012 460.301 98.2278V104.288H457.681ZM470.414 104.408C469.188 104.408 468.234 104.075 467.554 103.408C466.888 102.728 466.554 101.775 466.554 100.548V95.7478H464.674V93.4078H464.874C465.408 93.4078 465.821 93.2678 466.114 92.9878C466.408 92.7078 466.554 92.3012 466.554 91.7678V90.9278H469.174V93.4078H471.674V95.7478H469.174V100.408C469.174 100.768 469.234 101.075 469.354 101.328C469.488 101.581 469.688 101.775 469.954 101.908C470.234 102.041 470.588 102.108 471.014 102.108C471.108 102.108 471.214 102.101 471.334 102.088C471.468 102.075 471.594 102.061 471.714 102.048V104.288C471.528 104.315 471.314 104.341 471.074 104.368C470.834 104.395 470.614 104.408 470.414 104.408Z" fill="#000C14"/>
<path opacity="0.5" d="M-50.2657 192.288C-50.2657 187.87 -46.684 184.288 -42.2657 184.288H480.734C485.153 184.288 488.734 187.87 488.734 192.288V472.288C488.734 476.706 485.153 480.288 480.734 480.288H-42.2657C-46.684 480.288 -50.2657 476.706 -50.2657 472.288V192.288Z" fill="#D6DFE6" fill-opacity="0.2"/>
</g>
<path d="M-26.2657 34.5378H504.734V30.0378H-26.2657V34.5378ZM526.484 56.2878V501.788H530.984V56.2878H526.484ZM504.734 523.538H-26.2657V528.038H504.734V523.538ZM-48.0157 501.788V56.2878H-52.5157V501.788H-48.0157ZM-26.2657 523.538C-38.2779 523.538 -48.0157 513.8 -48.0157 501.788H-52.5157C-52.5157 516.285 -40.7631 528.038 -26.2657 528.038V523.538ZM526.484 501.788C526.484 513.8 516.747 523.538 504.734 523.538V528.038C519.232 528.038 530.984 516.285 530.984 501.788H526.484ZM504.734 34.5378C516.747 34.5378 526.484 44.2757 526.484 56.2878H530.984C530.984 41.7904 519.232 30.0378 504.734 30.0378V34.5378ZM-26.2657 30.0378C-40.7632 30.0378 -52.5157 41.7904 -52.5157 56.2878H-48.0157C-48.0157 44.2756 -38.2779 34.5378 -26.2657 34.5378V30.0378Z" fill="#DBDEE1" fill-opacity="0.2" mask="url(#path-2-inside-1_9_4869)"/>
</g>
</g>
<defs>
<filter id="filter0_dddd_9_4869" x="-80.6082" y="24.3724" width="666.07" height="653.128" filterUnits="userSpaceOnUse" color-interpolation-filters="sRGB">
<feFlood flood-opacity="0" result="BackgroundImageFix"/>
<feColorMatrix in="SourceAlpha" type="matrix" values="0 0 0 0 0 0 0 0 0 0 0 0 0 0 0 0 0 0 127 0" result="hardAlpha"/>
<feOffset dx="1.31924" dy="6.59619"/>
<feGaussianBlur stdDeviation="7.25581"/>
<feColorMatrix type="matrix" values="0 0 0 0 0 0 0 0 0 0 0 0 0 0 0 0 0 0 0.08 0"/>
<feBlend mode="normal" in2="BackgroundImageFix" result="effect1_dropShadow_9_4869"/>
<feColorMatrix in="SourceAlpha" type="matrix" values="0 0 0 0 0 0 0 0 0 0 0 0 0 0 0 0 0 0 127 0" result="hardAlpha"/>
<feOffset dx="2.63848" dy="26.3848"/>
<feGaussianBlur stdDeviation="13.852"/>
<feColorMatrix type="matrix" values="0 0 0 0 0 0 0 0 0 0 0 0 0 0 0 0 0 0 0.06 0"/>
<feBlend mode="normal" in2="effect1_dropShadow_9_4869" result="effect2_dropShadow_9_4869"/>
<feColorMatrix in="SourceAlpha" type="matrix" values="0 0 0 0 0 0 0 0 0 0 0 0 0 0 0 0 0 0 127 0" result="hardAlpha"/>
<feOffset dx="6.59619" dy="60.685"/>
<feGaussianBlur stdDeviation="18.4693"/>
<feColorMatrix type="matrix" values="0 0 0 0 0 0 0 0 0 0 0 0 0 0 0 0 0 0 0.04 0"/>
<feBlend mode="normal" in2="effect2_dropShadow_9_4869" result="effect3_dropShadow_9_4869"/>
<feColorMatrix in="SourceAlpha" type="matrix" values="0 0 0 0 0 0 0 0 0 0 0 0 0 0 0 0 0 0 127 0" result="hardAlpha"/>
<feOffset dx="13.1924" dy="108.178"/>
<feGaussianBlur stdDeviation="21.7674"/>
<feColorMatrix type="matrix" values="0 0 0 0 0 0 0 0 0 0 0 0 0 0 0 0 0 0 0.01 0"/>
<feBlend mode="normal" in2="effect3_dropShadow_9_4869" result="effect4_dropShadow_9_4869"/>
<feBlend mode="normal" in="SourceGraphic" in2="effect4_dropShadow_9_4869" result="shape"/>
</filter>
<radialGradient id="paint0_diamond_9_4869" cx="0" cy="0" r="1" gradientUnits="userSpaceOnUse" gradientTransform="translate(382.234 -17.7122) rotate(132.047) scale(569.624 803.242)">
<stop offset="0.589997" stop-color="#02090D"/>
<stop offset="0.9" stop-color="#02090D" stop-opacity="0"/>
</radialGradient>
<linearGradient id="paint1_linear_9_4869" x1="-0.35189" y1="-8.83716" x2="363.326" y2="584.784" gradientUnits="userSpaceOnUse">
<stop stop-color="#D6D7D8" stop-opacity="0"/>
<stop offset="1" stop-color="#A3D260" stop-opacity="0.06"/>
</linearGradient>
<clipPath id="clip0_9_4869">
<path d="M-50.2657 56.2878C-50.2657 43.033 -39.5205 32.2878 -26.2657 32.2878H504.734C517.989 32.2878 528.734 43.033 528.734 56.2878V501.788C528.734 515.043 517.989 525.788 504.734 525.788H-26.2657C-39.5205 525.788 -50.2657 515.043 -50.2657 501.788V56.2878Z" fill="white"/>
</clipPath>
</defs>
</svg>
