<svg width="64" height="64" viewBox="0 0 64 64" fill="none" xmlns="http://www.w3.org/2000/svg">
<g id="lock">
<path id="Icon" d="M18.7969 30.1663V19.4996C18.7969 15.9634 20.2016 12.572 22.7021 10.0715C25.2026 7.57102 28.594 6.16626 32.1302 6.16626C35.6664 6.16626 39.0578 7.57102 41.5583 10.0715C44.0588 12.572 45.4636 15.9634 45.4636 19.4996V30.1663M13.4636 30.1663H50.7969C53.7424 30.1663 56.1302 32.5541 56.1302 35.4996V54.1663C56.1302 57.1118 53.7424 59.4996 50.7969 59.4996H13.4636C10.518 59.4996 8.13022 57.1118 8.13022 54.1663V35.4996C8.13022 32.5541 10.518 30.1663 13.4636 30.1663Z" stroke="#D6DFE6" stroke-width="3" stroke-linecap="round" stroke-linejoin="round"/>
</g>
</svg>
