<svg width="841" height="385" viewBox="0 0 841 385" fill="none" xmlns="http://www.w3.org/2000/svg">
<g filter="url(#filter0_dddd_9_4827)">
<mask id="path-1-inside-1_9_4827" fill="white">
<path d="M272.734 55.2878C272.734 43.1376 282.584 33.2878 294.734 33.2878H546.734C558.885 33.2878 568.734 43.1376 568.734 55.2878V415.288C568.734 427.438 558.885 437.288 546.734 437.288H294.734C282.584 437.288 272.734 427.438 272.734 415.288V55.2878Z"/>
</mask>
<path d="M272.734 55.2878C272.734 43.1376 282.584 33.2878 294.734 33.2878H546.734C558.885 33.2878 568.734 43.1376 568.734 55.2878V415.288C568.734 427.438 558.885 437.288 546.734 437.288H294.734C282.584 437.288 272.734 427.438 272.734 415.288V55.2878Z" fill="#082134"/>
<path d="M272.734 55.2878C272.734 43.1376 282.584 33.2878 294.734 33.2878H546.734C558.885 33.2878 568.734 43.1376 568.734 55.2878V415.288C568.734 427.438 558.885 437.288 546.734 437.288H294.734C282.584 437.288 272.734 427.438 272.734 415.288V55.2878Z" fill="url(#paint0_linear_9_4827)" fill-opacity="0.16" style="mix-blend-mode:luminosity"/>
<path d="M294.734 34.7878H546.734V31.7878H294.734V34.7878ZM567.234 55.2878V415.288H570.234V55.2878H567.234ZM546.734 435.788H294.734V438.788H546.734V435.788ZM274.234 415.288V55.2878H271.234V415.288H274.234ZM294.734 435.788C283.412 435.788 274.234 426.61 274.234 415.288H271.234C271.234 428.267 281.756 438.788 294.734 438.788V435.788ZM567.234 415.288C567.234 426.61 558.056 435.788 546.734 435.788V438.788C559.713 438.788 570.234 428.267 570.234 415.288H567.234ZM546.734 34.7878C558.056 34.7878 567.234 43.966 567.234 55.2878H570.234C570.234 42.3092 559.713 31.7878 546.734 31.7878V34.7878ZM294.734 31.7878C281.756 31.7878 271.234 42.3092 271.234 55.2878H274.234C274.234 43.966 283.412 34.7878 294.734 34.7878V31.7878Z" fill="#91A6B6" fill-opacity="0.2" mask="url(#path-1-inside-1_9_4827)"/>
<path d="M300.734 69.2878C300.734 64.8696 304.316 61.2878 308.734 61.2878H434.734C439.153 61.2878 442.734 64.8696 442.734 69.2878V85.2878C442.734 89.7061 439.153 93.2878 434.734 93.2878H308.734C304.316 93.2878 300.734 89.7061 300.734 85.2878V69.2878Z" fill="#D6DFE6" fill-opacity="0.2"/>
<path opacity="0.5" d="M300.734 121.288C300.734 116.87 304.316 113.288 308.734 113.288H532.734C537.153 113.288 540.734 116.87 540.734 121.288V401.288C540.734 405.706 537.153 409.288 532.734 409.288H308.734C304.316 409.288 300.734 405.706 300.734 401.288V121.288Z" fill="#D6DFE6" fill-opacity="0.2"/>
</g>
<g filter="url(#filter1_dddd_9_4827)">
<mask id="path-5-inside-2_9_4827" fill="white">
<path d="M161.734 311.288C161.734 299.138 171.584 289.288 183.734 289.288H370.734C382.885 289.288 392.734 299.138 392.734 311.288V339.288C392.734 351.438 382.885 361.288 370.734 361.288H183.734C171.584 361.288 161.734 351.438 161.734 339.288V311.288Z"/>
</mask>
<path d="M161.734 311.288C161.734 299.138 171.584 289.288 183.734 289.288H370.734C382.885 289.288 392.734 299.138 392.734 311.288V339.288C392.734 351.438 382.885 361.288 370.734 361.288H183.734C171.584 361.288 161.734 351.438 161.734 339.288V311.288Z" fill="#1C1E20"/>
<path d="M161.734 311.288C161.734 299.138 171.584 289.288 183.734 289.288H370.734C382.885 289.288 392.734 299.138 392.734 311.288V339.288C392.734 351.438 382.885 361.288 370.734 361.288H183.734C171.584 361.288 161.734 351.438 161.734 339.288V311.288Z" fill="white" fill-opacity="0.04"/>
<path d="M161.734 311.288C161.734 299.138 171.584 289.288 183.734 289.288H370.734C382.885 289.288 392.734 299.138 392.734 311.288V339.288C392.734 351.438 382.885 361.288 370.734 361.288H183.734C171.584 361.288 161.734 351.438 161.734 339.288V311.288Z" fill="url(#paint1_linear_9_4827)" fill-opacity="0.32" style="mix-blend-mode:luminosity"/>
<path d="M183.734 290.788H370.734V287.788H183.734V290.788ZM391.234 311.288V339.288H394.234V311.288H391.234ZM370.734 359.788H183.734V362.788H370.734V359.788ZM163.234 339.288V311.288H160.234V339.288H163.234ZM183.734 359.788C172.412 359.788 163.234 350.61 163.234 339.288H160.234C160.234 352.267 170.756 362.788 183.734 362.788V359.788ZM391.234 339.288C391.234 350.61 382.056 359.788 370.734 359.788V362.788C383.713 362.788 394.234 352.267 394.234 339.288H391.234ZM370.734 290.788C382.056 290.788 391.234 299.966 391.234 311.288H394.234C394.234 298.309 383.713 287.788 370.734 287.788V290.788ZM183.734 287.788C170.756 287.788 160.234 298.309 160.234 311.288H163.234C163.234 299.966 172.412 290.788 183.734 290.788V287.788Z" fill="#DCDEE0" fill-opacity="0.2" mask="url(#path-5-inside-2_9_4827)"/>
<path d="M232.354 334.288V319.828C232.428 319.828 232.631 319.828 232.964 319.828C233.304 319.828 233.701 319.828 234.154 319.828C234.614 319.828 235.071 319.831 235.524 319.838C235.984 319.838 236.368 319.841 236.674 319.848C238.428 319.888 239.858 320.201 240.964 320.788C242.071 321.375 242.881 322.195 243.394 323.248C243.914 324.301 244.174 325.548 244.174 326.988C244.174 328.488 243.901 329.785 243.354 330.878C242.808 331.965 241.971 332.805 240.844 333.398C239.724 333.991 238.301 334.288 236.574 334.288H232.354ZM235.294 331.928H236.634C237.461 331.928 238.211 331.768 238.884 331.448C239.564 331.128 240.108 330.605 240.514 329.878C240.921 329.151 241.124 328.181 241.124 326.968C241.124 325.841 240.944 324.928 240.584 324.228C240.224 323.521 239.711 323.005 239.044 322.678C238.378 322.351 237.588 322.188 236.674 322.188H235.294V331.928ZM250.729 334.488C249.702 334.488 248.799 334.275 248.019 333.848C247.246 333.415 246.642 332.805 246.209 332.018C245.776 331.231 245.559 330.305 245.559 329.238C245.559 328.205 245.756 327.275 246.149 326.448C246.549 325.615 247.122 324.958 247.869 324.478C248.616 323.991 249.519 323.748 250.579 323.748C251.632 323.748 252.516 323.971 253.229 324.418C253.942 324.858 254.482 325.475 254.849 326.268C255.216 327.055 255.399 327.965 255.399 328.998V329.788H248.449C248.449 330.315 248.536 330.775 248.709 331.168C248.882 331.555 249.132 331.855 249.459 332.068C249.792 332.275 250.192 332.378 250.659 332.378C251.159 332.378 251.596 332.271 251.969 332.058C252.342 331.845 252.606 331.495 252.759 331.008H255.389C255.269 331.741 254.976 332.368 254.509 332.888C254.042 333.408 253.476 333.805 252.809 334.078C252.142 334.351 251.449 334.488 250.729 334.488ZM248.449 328.048H252.669C252.669 327.635 252.589 327.255 252.429 326.908C252.276 326.561 252.042 326.288 251.729 326.088C251.422 325.888 251.036 325.788 250.569 325.788C250.122 325.788 249.739 325.898 249.419 326.118C249.106 326.331 248.862 326.611 248.689 326.958C248.522 327.305 248.442 327.668 248.449 328.048ZM261.23 334.398C260.317 334.398 259.61 334.281 259.11 334.048C258.617 333.815 258.274 333.488 258.08 333.068C257.894 332.648 257.8 332.161 257.8 331.608V325.978H256.12V323.948H257.89L258.63 320.828H260.71V323.938H263.01V325.978H260.71L260.73 331.488C260.73 331.741 260.76 331.931 260.82 332.058C260.887 332.178 260.987 332.258 261.12 332.298C261.26 332.331 261.437 332.348 261.65 332.348H263.04V334.148C262.9 334.208 262.69 334.265 262.41 334.318C262.13 334.371 261.737 334.398 261.23 334.398ZM269.109 334.488C268.082 334.488 267.179 334.275 266.399 333.848C265.625 333.415 265.022 332.805 264.589 332.018C264.155 331.231 263.939 330.305 263.939 329.238C263.939 328.205 264.135 327.275 264.529 326.448C264.929 325.615 265.502 324.958 266.249 324.478C266.995 323.991 267.899 323.748 268.959 323.748C270.012 323.748 270.895 323.971 271.609 324.418C272.322 324.858 272.862 325.475 273.229 326.268C273.595 327.055 273.779 327.965 273.779 328.998V329.788H266.829C266.829 330.315 266.915 330.775 267.089 331.168C267.262 331.555 267.512 331.855 267.839 332.068C268.172 332.275 268.572 332.378 269.039 332.378C269.539 332.378 269.975 332.271 270.349 332.058C270.722 331.845 270.985 331.495 271.139 331.008H273.769C273.649 331.741 273.355 332.368 272.889 332.888C272.422 333.408 271.855 333.805 271.189 334.078C270.522 334.351 269.829 334.488 269.109 334.488ZM266.829 328.048H271.049C271.049 327.635 270.969 327.255 270.809 326.908C270.655 326.561 270.422 326.288 270.109 326.088C269.802 325.888 269.415 325.788 268.949 325.788C268.502 325.788 268.119 325.898 267.799 326.118C267.485 326.331 267.242 326.611 267.069 326.958C266.902 327.305 266.822 327.668 266.829 328.048ZM279.982 334.488C279.022 334.488 278.165 334.275 277.412 333.848C276.659 333.421 276.065 332.811 275.632 332.018C275.205 331.218 274.992 330.265 274.992 329.158C274.992 328.091 275.199 327.151 275.612 326.338C276.025 325.525 276.605 324.891 277.352 324.438C278.105 323.978 278.982 323.748 279.982 323.748C280.849 323.748 281.595 323.925 282.222 324.278C282.855 324.631 283.352 325.108 283.712 325.708C284.079 326.308 284.289 326.978 284.342 327.718H281.912C281.865 327.445 281.769 327.175 281.622 326.908C281.475 326.635 281.269 326.411 281.002 326.238C280.735 326.058 280.402 325.968 280.002 325.968C279.322 325.968 278.769 326.231 278.342 326.758C277.922 327.278 277.712 328.071 277.712 329.138C277.712 330.145 277.919 330.945 278.332 331.538C278.745 332.125 279.322 332.418 280.062 332.418C280.455 332.418 280.782 332.321 281.042 332.128C281.309 331.935 281.515 331.705 281.662 331.438C281.809 331.165 281.902 330.911 281.942 330.678H284.312C284.265 331.391 284.059 332.038 283.692 332.618C283.325 333.191 282.825 333.648 282.192 333.988C281.565 334.321 280.829 334.488 279.982 334.488ZM290.147 334.398C289.234 334.398 288.527 334.281 288.027 334.048C287.534 333.815 287.191 333.488 286.997 333.068C286.811 332.648 286.717 332.161 286.717 331.608V325.978H285.037V323.948H286.807L287.547 320.828H289.627V323.938H291.927V325.978H289.627L289.647 331.488C289.647 331.741 289.677 331.931 289.737 332.058C289.804 332.178 289.904 332.258 290.037 332.298C290.177 332.331 290.354 332.348 290.567 332.348H291.957V334.148C291.817 334.208 291.607 334.265 291.327 334.318C291.047 334.371 290.654 334.398 290.147 334.398ZM293.638 334.288V323.948H296.428V334.288H293.638ZM293.608 322.468V319.838H296.448V322.468H293.608ZM303.05 334.488C302.036 334.488 301.153 334.271 300.4 333.838C299.653 333.405 299.073 332.791 298.66 331.998C298.253 331.205 298.05 330.265 298.05 329.178C298.05 328.091 298.253 327.141 298.66 326.328C299.073 325.515 299.653 324.881 300.4 324.428C301.153 323.975 302.04 323.748 303.06 323.748C304.08 323.748 304.963 323.971 305.71 324.418C306.456 324.858 307.033 325.485 307.44 326.298C307.846 327.111 308.05 328.071 308.05 329.178C308.05 330.218 307.85 331.138 307.45 331.938C307.056 332.731 306.486 333.355 305.74 333.808C305 334.261 304.103 334.488 303.05 334.488ZM303.06 332.318C303.573 332.318 303.986 332.168 304.3 331.868C304.613 331.568 304.84 331.175 304.98 330.688C305.12 330.195 305.19 329.658 305.19 329.078C305.19 328.531 305.126 328.015 305 327.528C304.873 327.041 304.653 326.648 304.34 326.348C304.026 326.048 303.6 325.898 303.06 325.898C302.546 325.898 302.13 326.041 301.81 326.328C301.496 326.608 301.266 326.991 301.12 327.478C300.973 327.958 300.9 328.491 300.9 329.078C300.9 329.618 300.966 330.138 301.1 330.638C301.233 331.131 301.456 331.535 301.77 331.848C302.083 332.161 302.513 332.318 303.06 332.318ZM309.644 334.288V323.948H312.514V325.408C312.674 325.155 312.88 324.911 313.134 324.678C313.394 324.438 313.72 324.241 314.114 324.088C314.507 323.935 314.974 323.858 315.514 323.858C316.147 323.858 316.737 323.981 317.284 324.228C317.837 324.475 318.284 324.865 318.624 325.398C318.964 325.925 319.134 326.615 319.134 327.468V334.288H316.214V327.828C316.214 327.268 316.047 326.848 315.714 326.568C315.38 326.288 314.974 326.148 314.494 326.148C314.174 326.148 313.864 326.205 313.564 326.318C313.27 326.431 313.03 326.601 312.844 326.828C312.657 327.055 312.564 327.335 312.564 327.668V334.288H309.644Z" fill="#D7DFE5"/>
<path d="M200.04 337.288C199.806 337.692 199.469 338.027 199.065 338.261C198.66 338.494 198.201 338.616 197.734 338.616C197.267 338.616 196.808 338.494 196.403 338.261C195.998 338.027 195.661 337.692 195.427 337.288M205.734 319.955C205.734 317.833 204.891 315.798 203.391 314.298C201.891 312.797 199.856 311.955 197.734 311.955C195.613 311.955 193.578 312.797 192.077 314.298C190.577 315.798 189.734 317.833 189.734 319.955C189.734 329.288 185.734 331.955 185.734 331.955H209.734C209.734 331.955 205.734 329.288 205.734 319.955Z" stroke="#00A7FD" stroke-width="1.5" stroke-linecap="round" stroke-linejoin="round"/>
</g>
<g filter="url(#filter2_dddd_9_4827)">
<mask id="path-9-inside-3_9_4827" fill="white">
<path d="M451.734 180.288C451.734 168.138 461.584 158.288 473.734 158.288H660.734C672.885 158.288 682.734 168.138 682.734 180.288V208.288C682.734 220.438 672.885 230.288 660.734 230.288H473.734C461.584 230.288 451.734 220.438 451.734 208.288V180.288Z"/>
</mask>
<path d="M451.734 180.288C451.734 168.138 461.584 158.288 473.734 158.288H660.734C672.885 158.288 682.734 168.138 682.734 180.288V208.288C682.734 220.438 672.885 230.288 660.734 230.288H473.734C461.584 230.288 451.734 220.438 451.734 208.288V180.288Z" fill="#1C1E20"/>
<path d="M451.734 180.288C451.734 168.138 461.584 158.288 473.734 158.288H660.734C672.885 158.288 682.734 168.138 682.734 180.288V208.288C682.734 220.438 672.885 230.288 660.734 230.288H473.734C461.584 230.288 451.734 220.438 451.734 208.288V180.288Z" fill="white" fill-opacity="0.04"/>
<path d="M451.734 180.288C451.734 168.138 461.584 158.288 473.734 158.288H660.734C672.885 158.288 682.734 168.138 682.734 180.288V208.288C682.734 220.438 672.885 230.288 660.734 230.288H473.734C461.584 230.288 451.734 220.438 451.734 208.288V180.288Z" fill="url(#paint2_linear_9_4827)" fill-opacity="0.32" style="mix-blend-mode:luminosity"/>
<path d="M473.734 159.788H660.734V156.788H473.734V159.788ZM681.234 180.288V208.288H684.234V180.288H681.234ZM660.734 228.788H473.734V231.788H660.734V228.788ZM453.234 208.288V180.288H450.234V208.288H453.234ZM473.734 228.788C462.412 228.788 453.234 219.61 453.234 208.288H450.234C450.234 221.267 460.756 231.788 473.734 231.788V228.788ZM681.234 208.288C681.234 219.61 672.056 228.788 660.734 228.788V231.788C673.713 231.788 684.234 221.267 684.234 208.288H681.234ZM660.734 159.788C672.056 159.788 681.234 168.966 681.234 180.288H684.234C684.234 167.309 673.713 156.788 660.734 156.788V159.788ZM473.734 156.788C460.756 156.788 450.234 167.309 450.234 180.288H453.234C453.234 168.966 462.412 159.788 473.734 159.788V156.788Z" fill="#DCDEE0" fill-opacity="0.2" mask="url(#path-9-inside-3_9_4827)"/>
<path d="M522.354 201.288V186.828H527.674C528.728 186.828 529.671 187.011 530.504 187.378C531.338 187.738 531.994 188.271 532.474 188.978C532.961 189.685 533.204 190.548 533.204 191.568C533.204 192.528 532.991 193.348 532.564 194.028C532.138 194.708 531.538 195.228 530.764 195.588C529.998 195.948 529.094 196.128 528.054 196.128H525.294V201.288H522.354ZM525.264 193.868H527.974C528.708 193.868 529.308 193.635 529.774 193.168C530.241 192.695 530.474 192.111 530.474 191.418C530.474 190.698 530.228 190.128 529.734 189.708C529.241 189.281 528.641 189.068 527.934 189.068H525.264V193.868ZM534.631 201.288V190.948H537.441V193.398C537.608 192.871 537.841 192.411 538.141 192.018C538.448 191.618 538.818 191.308 539.251 191.088C539.685 190.861 540.175 190.748 540.721 190.748C540.815 190.748 540.901 190.755 540.981 190.768C541.068 190.775 541.131 190.788 541.171 190.808V193.588C541.111 193.561 541.038 193.545 540.951 193.538C540.871 193.531 540.798 193.525 540.731 193.518C540.158 193.471 539.668 193.488 539.261 193.568C538.855 193.648 538.525 193.785 538.271 193.978C538.018 194.171 537.835 194.408 537.721 194.688C537.608 194.968 537.551 195.281 537.551 195.628V201.288H534.631ZM547.204 201.488C546.177 201.488 545.274 201.275 544.494 200.848C543.721 200.415 543.117 199.805 542.684 199.018C542.251 198.231 542.034 197.305 542.034 196.238C542.034 195.205 542.231 194.275 542.624 193.448C543.024 192.615 543.597 191.958 544.344 191.478C545.091 190.991 545.994 190.748 547.054 190.748C548.107 190.748 548.991 190.971 549.704 191.418C550.417 191.858 550.957 192.475 551.324 193.268C551.691 194.055 551.874 194.965 551.874 195.998V196.788H544.924C544.924 197.315 545.011 197.775 545.184 198.168C545.357 198.555 545.607 198.855 545.934 199.068C546.267 199.275 546.667 199.378 547.134 199.378C547.634 199.378 548.071 199.271 548.444 199.058C548.817 198.845 549.081 198.495 549.234 198.008H551.864C551.744 198.741 551.451 199.368 550.984 199.888C550.517 200.408 549.951 200.805 549.284 201.078C548.617 201.351 547.924 201.488 547.204 201.488ZM544.924 195.048H549.144C549.144 194.635 549.064 194.255 548.904 193.908C548.751 193.561 548.517 193.288 548.204 193.088C547.897 192.888 547.511 192.788 547.044 192.788C546.597 192.788 546.214 192.898 545.894 193.118C545.581 193.331 545.337 193.611 545.164 193.958C544.997 194.305 544.917 194.668 544.924 195.048ZM556.165 201.288L552.285 190.948H554.925L557.185 197.538H557.265L559.495 190.948H562.165L558.285 201.288H556.165ZM567.712 201.488C566.686 201.488 565.782 201.275 565.002 200.848C564.229 200.415 563.626 199.805 563.192 199.018C562.759 198.231 562.542 197.305 562.542 196.238C562.542 195.205 562.739 194.275 563.132 193.448C563.532 192.615 564.106 191.958 564.852 191.478C565.599 190.991 566.502 190.748 567.562 190.748C568.616 190.748 569.499 190.971 570.212 191.418C570.926 191.858 571.466 192.475 571.832 193.268C572.199 194.055 572.382 194.965 572.382 195.998V196.788H565.432C565.432 197.315 565.519 197.775 565.692 198.168C565.866 198.555 566.116 198.855 566.442 199.068C566.776 199.275 567.176 199.378 567.642 199.378C568.142 199.378 568.579 199.271 568.952 199.058C569.326 198.845 569.589 198.495 569.742 198.008H572.372C572.252 198.741 571.959 199.368 571.492 199.888C571.026 200.408 570.459 200.805 569.792 201.078C569.126 201.351 568.432 201.488 567.712 201.488ZM565.432 195.048H569.652C569.652 194.635 569.572 194.255 569.412 193.908C569.259 193.561 569.026 193.288 568.712 193.088C568.406 192.888 568.019 192.788 567.552 192.788C567.106 192.788 566.722 192.898 566.402 193.118C566.089 193.331 565.846 193.611 565.672 193.958C565.506 194.305 565.426 194.668 565.432 195.048ZM574.086 201.288V190.948H576.956V192.408C577.116 192.155 577.323 191.911 577.576 191.678C577.836 191.438 578.163 191.241 578.556 191.088C578.949 190.935 579.416 190.858 579.956 190.858C580.589 190.858 581.179 190.981 581.726 191.228C582.279 191.475 582.726 191.865 583.066 192.398C583.406 192.925 583.576 193.615 583.576 194.468V201.288H580.656V194.828C580.656 194.268 580.489 193.848 580.156 193.568C579.823 193.288 579.416 193.148 578.936 193.148C578.616 193.148 578.306 193.205 578.006 193.318C577.713 193.431 577.473 193.601 577.286 193.828C577.099 194.055 577.006 194.335 577.006 194.668V201.288H574.086ZM589.63 201.398C588.717 201.398 588.01 201.281 587.51 201.048C587.017 200.815 586.674 200.488 586.48 200.068C586.294 199.648 586.2 199.161 586.2 198.608V192.978H584.52V190.948H586.29L587.03 187.828H589.11V190.938H591.41V192.978H589.11L589.13 198.488C589.13 198.741 589.16 198.931 589.22 199.058C589.287 199.178 589.387 199.258 589.52 199.298C589.66 199.331 589.837 199.348 590.05 199.348H591.44V201.148C591.3 201.208 591.09 201.265 590.81 201.318C590.53 201.371 590.137 201.398 589.63 201.398ZM593.121 201.288V190.948H595.911V201.288H593.121ZM593.091 189.468V186.838H595.931V189.468H593.091ZM602.533 201.488C601.519 201.488 600.636 201.271 599.883 200.838C599.136 200.405 598.556 199.791 598.143 198.998C597.736 198.205 597.533 197.265 597.533 196.178C597.533 195.091 597.736 194.141 598.143 193.328C598.556 192.515 599.136 191.881 599.883 191.428C600.636 190.975 601.523 190.748 602.543 190.748C603.563 190.748 604.446 190.971 605.193 191.418C605.939 191.858 606.516 192.485 606.923 193.298C607.329 194.111 607.533 195.071 607.533 196.178C607.533 197.218 607.333 198.138 606.933 198.938C606.539 199.731 605.969 200.355 605.223 200.808C604.483 201.261 603.586 201.488 602.533 201.488ZM602.543 199.318C603.056 199.318 603.469 199.168 603.783 198.868C604.096 198.568 604.323 198.175 604.463 197.688C604.603 197.195 604.673 196.658 604.673 196.078C604.673 195.531 604.609 195.015 604.483 194.528C604.356 194.041 604.136 193.648 603.823 193.348C603.509 193.048 603.083 192.898 602.543 192.898C602.029 192.898 601.613 193.041 601.293 193.328C600.979 193.608 600.749 193.991 600.603 194.478C600.456 194.958 600.383 195.491 600.383 196.078C600.383 196.618 600.449 197.138 600.583 197.638C600.716 198.131 600.939 198.535 601.253 198.848C601.566 199.161 601.996 199.318 602.543 199.318ZM609.127 201.288V190.948H611.997V192.408C612.157 192.155 612.363 191.911 612.617 191.678C612.877 191.438 613.203 191.241 613.597 191.088C613.99 190.935 614.457 190.858 614.997 190.858C615.63 190.858 616.22 190.981 616.767 191.228C617.32 191.475 617.767 191.865 618.107 192.398C618.447 192.925 618.617 193.615 618.617 194.468V201.288H615.697V194.828C615.697 194.268 615.53 193.848 615.197 193.568C614.863 193.288 614.457 193.148 613.977 193.148C613.657 193.148 613.347 193.205 613.047 193.318C612.753 193.431 612.513 193.601 612.327 193.828C612.14 194.055 612.047 194.335 612.047 194.668V201.288H609.127Z" fill="#D7DFE5"/>
<path d="M491.333 186.688C491.089 186.937 490.952 187.272 490.952 187.621C490.952 187.97 491.089 188.305 491.333 188.554L493.467 190.688C493.716 190.932 494.051 191.069 494.4 191.069C494.749 191.069 495.084 190.932 495.333 190.688L500.36 185.661C501.031 187.143 501.234 188.793 500.942 190.393C500.651 191.993 499.878 193.466 498.729 194.616C497.579 195.766 496.106 196.538 494.506 196.83C492.906 197.121 491.255 196.918 489.773 196.248L480.56 205.461C480.03 205.992 479.31 206.29 478.56 206.29C477.81 206.29 477.091 205.992 476.56 205.461C476.03 204.931 475.732 204.211 475.732 203.461C475.732 202.711 476.03 201.992 476.56 201.461L485.773 192.248C485.103 190.766 484.9 189.116 485.192 187.516C485.483 185.916 486.255 184.443 487.405 183.293C488.555 182.143 490.028 181.371 491.628 181.079C493.228 180.788 494.879 180.991 496.36 181.661L491.347 186.674L491.333 186.688Z" stroke="#00A7FD" stroke-width="1.5" stroke-linecap="round" stroke-linejoin="round"/>
</g>
<defs>
<filter id="filter0_dddd_9_4827" x="249.734" y="27.2878" width="362" height="525" filterUnits="userSpaceOnUse" color-interpolation-filters="sRGB">
<feFlood flood-opacity="0" result="BackgroundImageFix"/>
<feColorMatrix in="SourceAlpha" type="matrix" values="0 0 0 0 0 0 0 0 0 0 0 0 0 0 0 0 0 0 127 0" result="hardAlpha"/>
<feOffset dx="1" dy="5"/>
<feGaussianBlur stdDeviation="5.5"/>
<feColorMatrix type="matrix" values="0 0 0 0 0 0 0 0 0 0 0 0 0 0 0 0 0 0 0.08 0"/>
<feBlend mode="normal" in2="BackgroundImageFix" result="effect1_dropShadow_9_4827"/>
<feColorMatrix in="SourceAlpha" type="matrix" values="0 0 0 0 0 0 0 0 0 0 0 0 0 0 0 0 0 0 127 0" result="hardAlpha"/>
<feOffset dx="2" dy="20"/>
<feGaussianBlur stdDeviation="10.5"/>
<feColorMatrix type="matrix" values="0 0 0 0 0 0 0 0 0 0 0 0 0 0 0 0 0 0 0.06 0"/>
<feBlend mode="normal" in2="effect1_dropShadow_9_4827" result="effect2_dropShadow_9_4827"/>
<feColorMatrix in="SourceAlpha" type="matrix" values="0 0 0 0 0 0 0 0 0 0 0 0 0 0 0 0 0 0 127 0" result="hardAlpha"/>
<feOffset dx="5" dy="46"/>
<feGaussianBlur stdDeviation="14"/>
<feColorMatrix type="matrix" values="0 0 0 0 0 0 0 0 0 0 0 0 0 0 0 0 0 0 0.04 0"/>
<feBlend mode="normal" in2="effect2_dropShadow_9_4827" result="effect3_dropShadow_9_4827"/>
<feColorMatrix in="SourceAlpha" type="matrix" values="0 0 0 0 0 0 0 0 0 0 0 0 0 0 0 0 0 0 127 0" result="hardAlpha"/>
<feOffset dx="10" dy="82"/>
<feGaussianBlur stdDeviation="16.5"/>
<feColorMatrix type="matrix" values="0 0 0 0 0 0 0 0 0 0 0 0 0 0 0 0 0 0 0.01 0"/>
<feBlend mode="normal" in2="effect3_dropShadow_9_4827" result="effect4_dropShadow_9_4827"/>
<feBlend mode="normal" in="SourceGraphic" in2="effect4_dropShadow_9_4827" result="shape"/>
</filter>
<filter id="filter1_dddd_9_4827" x="138.734" y="283.288" width="297" height="193" filterUnits="userSpaceOnUse" color-interpolation-filters="sRGB">
<feFlood flood-opacity="0" result="BackgroundImageFix"/>
<feColorMatrix in="SourceAlpha" type="matrix" values="0 0 0 0 0 0 0 0 0 0 0 0 0 0 0 0 0 0 127 0" result="hardAlpha"/>
<feOffset dx="1" dy="5"/>
<feGaussianBlur stdDeviation="5.5"/>
<feColorMatrix type="matrix" values="0 0 0 0 0 0 0 0 0 0 0 0 0 0 0 0 0 0 0.08 0"/>
<feBlend mode="normal" in2="BackgroundImageFix" result="effect1_dropShadow_9_4827"/>
<feColorMatrix in="SourceAlpha" type="matrix" values="0 0 0 0 0 0 0 0 0 0 0 0 0 0 0 0 0 0 127 0" result="hardAlpha"/>
<feOffset dx="2" dy="20"/>
<feGaussianBlur stdDeviation="10.5"/>
<feColorMatrix type="matrix" values="0 0 0 0 0 0 0 0 0 0 0 0 0 0 0 0 0 0 0.06 0"/>
<feBlend mode="normal" in2="effect1_dropShadow_9_4827" result="effect2_dropShadow_9_4827"/>
<feColorMatrix in="SourceAlpha" type="matrix" values="0 0 0 0 0 0 0 0 0 0 0 0 0 0 0 0 0 0 127 0" result="hardAlpha"/>
<feOffset dx="5" dy="46"/>
<feGaussianBlur stdDeviation="14"/>
<feColorMatrix type="matrix" values="0 0 0 0 0 0 0 0 0 0 0 0 0 0 0 0 0 0 0.04 0"/>
<feBlend mode="normal" in2="effect2_dropShadow_9_4827" result="effect3_dropShadow_9_4827"/>
<feColorMatrix in="SourceAlpha" type="matrix" values="0 0 0 0 0 0 0 0 0 0 0 0 0 0 0 0 0 0 127 0" result="hardAlpha"/>
<feOffset dx="10" dy="82"/>
<feGaussianBlur stdDeviation="16.5"/>
<feColorMatrix type="matrix" values="0 0 0 0 0 0 0 0 0 0 0 0 0 0 0 0 0 0 0.01 0"/>
<feBlend mode="normal" in2="effect3_dropShadow_9_4827" result="effect4_dropShadow_9_4827"/>
<feBlend mode="normal" in="SourceGraphic" in2="effect4_dropShadow_9_4827" result="shape"/>
</filter>
<filter id="filter2_dddd_9_4827" x="428.734" y="152.288" width="297" height="193" filterUnits="userSpaceOnUse" color-interpolation-filters="sRGB">
<feFlood flood-opacity="0" result="BackgroundImageFix"/>
<feColorMatrix in="SourceAlpha" type="matrix" values="0 0 0 0 0 0 0 0 0 0 0 0 0 0 0 0 0 0 127 0" result="hardAlpha"/>
<feOffset dx="1" dy="5"/>
<feGaussianBlur stdDeviation="5.5"/>
<feColorMatrix type="matrix" values="0 0 0 0 0 0 0 0 0 0 0 0 0 0 0 0 0 0 0.08 0"/>
<feBlend mode="normal" in2="BackgroundImageFix" result="effect1_dropShadow_9_4827"/>
<feColorMatrix in="SourceAlpha" type="matrix" values="0 0 0 0 0 0 0 0 0 0 0 0 0 0 0 0 0 0 127 0" result="hardAlpha"/>
<feOffset dx="2" dy="20"/>
<feGaussianBlur stdDeviation="10.5"/>
<feColorMatrix type="matrix" values="0 0 0 0 0 0 0 0 0 0 0 0 0 0 0 0 0 0 0.06 0"/>
<feBlend mode="normal" in2="effect1_dropShadow_9_4827" result="effect2_dropShadow_9_4827"/>
<feColorMatrix in="SourceAlpha" type="matrix" values="0 0 0 0 0 0 0 0 0 0 0 0 0 0 0 0 0 0 127 0" result="hardAlpha"/>
<feOffset dx="5" dy="46"/>
<feGaussianBlur stdDeviation="14"/>
<feColorMatrix type="matrix" values="0 0 0 0 0 0 0 0 0 0 0 0 0 0 0 0 0 0 0.04 0"/>
<feBlend mode="normal" in2="effect2_dropShadow_9_4827" result="effect3_dropShadow_9_4827"/>
<feColorMatrix in="SourceAlpha" type="matrix" values="0 0 0 0 0 0 0 0 0 0 0 0 0 0 0 0 0 0 127 0" result="hardAlpha"/>
<feOffset dx="10" dy="82"/>
<feGaussianBlur stdDeviation="16.5"/>
<feColorMatrix type="matrix" values="0 0 0 0 0 0 0 0 0 0 0 0 0 0 0 0 0 0 0.01 0"/>
<feBlend mode="normal" in2="effect3_dropShadow_9_4827" result="effect4_dropShadow_9_4827"/>
<feBlend mode="normal" in="SourceGraphic" in2="effect4_dropShadow_9_4827" result="shape"/>
</filter>
<linearGradient id="paint0_linear_9_4827" x1="298.252" y1="-0.378825" x2="632.371" y2="340.196" gradientUnits="userSpaceOnUse">
<stop stop-opacity="0"/>
<stop offset="1" stop-opacity="0.5"/>
</linearGradient>
<linearGradient id="paint1_linear_9_4827" x1="181.648" y1="283.288" x2="207.059" y2="396.709" gradientUnits="userSpaceOnUse">
<stop stop-color="#D6D7D8" stop-opacity="0"/>
<stop offset="1" stop-color="#A3D260" stop-opacity="0.06"/>
</linearGradient>
<linearGradient id="paint2_linear_9_4827" x1="471.648" y1="152.288" x2="497.059" y2="265.709" gradientUnits="userSpaceOnUse">
<stop stop-color="#D6D7D8" stop-opacity="0"/>
<stop offset="1" stop-color="#A3D260" stop-opacity="0.06"/>
</linearGradient>
</defs>
</svg>
