<svg width="128" height="128" viewBox="0 0 128 128" fill="none" xmlns="http://www.w3.org/2000/svg">
<path fill-rule="evenodd" clip-rule="evenodd" d="M58.6718 114C38.1882 101.292 27.6126 93.5625 21.1122 75.2521L22.5528 73.806C22.9982 73.3742 23.4408 72.9207 23.9077 72.486C25.1364 76.1992 26.6415 79.8157 28.5436 83.1907C31.712 88.8057 35.7255 93.2378 40.67 97.3586C46.2018 101.968 52.5172 105.995 58.6718 109.826C64.8261 105.997 71.1415 101.968 76.6733 97.3586C80.754 93.9596 84.1986 90.3457 87.0615 86.0289C88.1801 86.571 89.3711 86.9357 90.5947 87.0996C83.9144 97.6778 74.1061 104.422 58.6718 114ZM20.6909 16.1763C19.7788 19.224 22.6923 21.6734 25.343 20.2435C28.4631 18.5587 26.899 14.8403 25.2598 14.352L24.3691 14.0864C22.9901 13.6732 21.1014 14.8 20.6909 16.1763ZM92.5719 41.639C92.5719 44.2494 92.9876 45.4915 94.8012 47.3239C95.4426 47.9705 95.9226 48.33 96.7787 48.7135C98.6054 49.5263 99.9229 49.4942 101.83 49.0488L104.808 52.636C105.192 53.0921 105.538 53.5053 105.87 53.9317C106.249 54.4174 109.573 58.4738 110.08 58.8146C109.436 60.0324 109.238 61.146 109.238 63.0239C108.425 63.2117 104.808 65.3767 103.963 65.8299C103.132 66.2753 99.5283 68.1131 98.7987 68.7464C96.7812 67.3942 95.3997 66.0528 92.0647 66.0528C83.3376 66.0528 79.6058 76.5935 85.1161 82.0907C90.8201 87.7782 99.3083 84.7521 101.157 78.3453C101.444 77.3528 101.879 74.7853 101.323 73.6289L106.702 70.7585C107.655 70.2085 111.277 68.0942 112.098 67.9039C118.04 71.8824 123.545 66.8442 123.545 62.8521C123.545 61.2074 123.631 60.3813 122.821 58.8628C121.106 55.6621 118.013 54.4067 114.287 55.2756C113.46 54.0417 106.206 45.6579 106.206 45.5103C106.206 44.8691 108.569 40.8234 104.653 36.9629C99.9658 32.3403 92.5719 36.3404 92.5719 41.639ZM77.4193 20.5949C77.4193 25.1665 83.0397 27.1866 86.0472 24.1712C88.9958 21.212 87.3833 15.5432 82.3019 15.5432C79.6326 15.5432 77.4193 17.896 77.4193 20.5949ZM8.77653 22.607L8.75775 22.6714C8.35799 24.0155 8.17289 24.7775 8.38214 26.2369C8.688 28.3644 10.6223 30.9292 12.7578 31.5677C15.497 32.386 16.4387 31.7555 18.0725 34.7898L25.4396 46.5164C27.61 49.7949 23.7762 50.817 24.3745 56.491C24.5649 58.2913 25.6783 59.9117 23.6394 62.0231L17.4474 68.1696C16.2992 69.3796 13.7371 72.3039 12.2723 72.6364C10.9067 72.9474 10.3916 72.4246 8.51896 72.8107C2.78309 73.991 1.32633 80.9907 5.05545 84.5453C6.67321 86.0882 8.96164 86.8042 11.1642 86.4182C13.4688 86.0128 15.7116 84.3442 16.4333 81.9296C17.5762 78.1092 15.6901 77.7953 18.0886 75.2978L21.0692 72.3092C21.6058 71.7885 22.0592 71.3192 22.6118 70.8146C24.0096 69.5378 27.6234 65.476 28.7528 64.9742C31.2237 63.8742 32.6644 66.2967 37.7214 64.5692C41.9764 63.1149 45.0536 57.956 43.7661 52.9685C43.4629 51.7935 42.5211 49.5131 41.5632 48.9228C40.7611 49.8028 40.5679 50.2749 39.4171 50.6856C38.4968 51.0103 37.3325 51.0931 36.3075 50.5942C35.3043 50.106 34.5799 49.4192 34.1856 48.6331C33.818 47.898 33.641 46.6451 33.9709 45.5452C33.15 45.3735 33.3673 45.6418 31.8569 45.1911C30.4591 44.7725 28.6938 41.3976 27.779 39.914L26.2766 37.5209C26.0646 37.1399 25.9627 37.0863 25.7481 36.7375L23.7869 33.5235C23.0545 32.4128 21.7265 30.575 21.5387 29.3946C21.2087 27.3208 23.5669 25.1343 20.9619 21.1583C17.7452 16.2461 10.177 17.9094 8.77117 22.6097L8.77653 22.607ZM36.7182 49.8324L37.3539 50.0228C38.7221 50.4335 40.5839 49.4274 40.9946 48.059C41.4532 46.5191 41.4132 45.3896 40.0261 44.2011C38.0193 42.4787 34.5451 43.8792 34.6229 47.01C34.6497 48.0617 35.5084 49.4703 36.7182 49.8324ZM18.0484 64.6092C16.1275 56.3946 14.617 46.3957 13.23 33.8669C13.5144 33.9313 13.7988 33.993 14.0885 34.052C14.3836 34.1137 14.7485 34.1781 15.0248 34.2934C15.5292 34.5027 15.9826 35.3478 16.2214 35.7878L16.2535 35.8495L17.1738 37.3143C18.1208 45.4969 19.2959 53.7171 21.0183 61.661L18.0484 64.6092ZM24.2216 23.6882L58.6718 14.8698L75.4608 19.1677C75.3643 19.6318 75.3133 20.1093 75.3133 20.5949C75.3133 21.3971 75.4422 22.1698 75.6836 22.8861L58.669 18.5291L23.9426 27.4201C24.0338 27.0659 24.1169 26.7091 24.1813 26.3415C24.3396 25.4133 24.3503 24.5333 24.2216 23.6882ZM89.304 22.7117L104.867 26.6957C104.615 29.2014 104.363 31.6106 104.105 33.9366C103.029 33.3383 101.863 32.9788 100.666 32.8635C100.792 31.6992 100.913 30.5348 101.031 29.3732L87.3215 25.864C87.394 25.7969 87.4665 25.7272 87.539 25.6574C88.3758 24.8177 88.9686 23.8036 89.3015 22.709L89.304 22.7117ZM101.693 52.1771C100.859 57.3656 99.9497 61.9881 98.9276 66.1414L98.8229 66.2028C98.1951 65.771 97.5647 65.3553 96.8669 65.0064C96.4726 64.8106 96.0758 64.6442 95.6758 64.5074C95.8958 63.5846 96.1051 62.6617 96.3065 61.7414C97.0494 58.3235 97.6908 54.8546 98.2569 51.3588C99.1608 51.5063 100.046 51.4903 101.009 51.351L101.693 52.1771ZM58.6718 103.304C53.6843 100.16 48.7239 96.8728 44.2114 93.1118C39.8114 89.4471 36.1868 85.4817 33.3619 80.4757C31.1781 76.6071 29.5738 72.3628 28.3128 68.0381C28.8011 67.5578 29.3082 67.0935 29.6543 66.8817C30.2874 66.6296 31.2478 66.9514 31.8756 67.0749C34.2043 67.5256 36.16 67.3324 38.4111 66.5624C44.0422 64.6364 47.2804 58.1331 45.8129 52.4453C45.4264 50.9485 44.5118 48.7674 43.2668 47.5922C43.5914 45.6606 43.0818 44.0455 41.3997 42.6021C38.945 40.4961 35.5484 41.1776 33.7509 43.3909C33.6007 43.3802 33.4451 43.3748 33.2734 43.3668C33.0883 43.3587 32.7744 43.2648 32.5625 43.2004C31.7684 42.6531 30.1023 39.6403 29.5711 38.7925L28.0902 36.4317C27.9185 36.1392 27.7226 35.9138 27.5536 35.6375L25.7427 32.6676L58.6743 24.2355L95.0319 33.5449L94.9597 34.1968C92.3383 35.761 90.4686 38.5081 90.4686 41.6363C90.4686 44.6733 91.0401 46.4386 93.1004 48.5875C92.4833 52.6038 91.7669 56.601 90.9058 60.561C90.6508 61.736 90.3772 62.9192 90.0876 64.1024C86.1222 64.7542 82.8547 67.3592 81.304 71.2199C79.7801 75.0135 80.2415 79.346 82.7286 82.5492C80.1101 86.6003 76.9068 89.9646 73.1347 93.1089C68.6197 96.8703 63.6618 100.157 58.6743 103.301L58.6718 103.304Z" fill="url(#paint0_linear_183_7)"/>
<path d="M58.6718 56.3513L54.8568 65.2478H58.6718H62.4868L58.6718 56.3513ZM58.6718 72.8778H51.5836L50.1861 76.1482H40.155L58.6689 37.4724L77.1832 76.1482H67.1521L65.7543 72.8778H58.6664H58.6718Z" fill="white"/>
<defs>
<linearGradient id="paint0_linear_183_7" x1="17.4206" y1="100.036" x2="113.45" y2="24.5736" gradientUnits="userSpaceOnUse">
<stop stop-color="#00A7FD"/>
<stop offset="1" stop-color="#00FDEF"/>
</linearGradient>
</defs>
</svg>
