<svg width="35" height="29" viewBox="0 0 35 29" fill="none" xmlns="http://www.w3.org/2000/svg">
<g id="Group 1">
<path id="Vector" fill-rule="evenodd" clip-rule="evenodd" d="M16.3224 28.2878C10.587 24.7295 7.62584 22.5653 5.80571 17.4384L6.2091 17.0335C6.33379 16.9126 6.45774 16.7856 6.58845 16.6639C6.93249 17.7036 7.35391 18.7162 7.8865 19.6612C8.77366 21.2334 9.89744 22.4744 11.2819 23.6282C12.8308 24.9188 14.5991 26.0463 16.3224 27.119C18.0456 26.047 19.8139 24.9188 21.3628 23.6282C22.5054 22.6765 23.4699 21.6646 24.2715 20.4559C24.5847 20.6077 24.9182 20.7098 25.2608 20.7557C23.3903 23.7176 20.644 25.6061 16.3224 28.2878ZM5.68777 0.897213C5.43237 1.75056 6.24816 2.4364 6.99034 2.03601C7.86397 1.56427 7.42603 0.523121 6.96705 0.386405L6.71765 0.312033C6.33154 0.19635 5.80271 0.512604 5.68777 0.897965V0.897213ZM25.8144 8.02675C25.8144 8.75766 25.9308 9.10546 26.4386 9.61852C26.6182 9.79956 26.7526 9.90022 26.9923 10.0076C27.5038 10.2352 27.8727 10.2262 28.4068 10.1015L29.2406 11.1059C29.348 11.2336 29.4449 11.3493 29.538 11.4687C29.644 11.6047 30.5747 12.7405 30.7167 12.8359C30.5364 13.1769 30.4808 13.4887 30.4808 14.0145C30.2532 14.0671 29.2406 14.6733 29.0039 14.8002C28.7711 14.9249 27.7622 15.4395 27.5579 15.6168C26.993 15.2382 26.6062 14.8626 25.6724 14.8626C23.2288 14.8626 22.1839 17.814 23.7268 19.3532C25.3239 20.9457 27.7006 20.0984 28.2182 18.3045C28.2986 18.0266 28.4203 17.3077 28.2648 16.9839L29.7709 16.1802C30.0376 16.0262 31.0517 15.4342 31.2816 15.3809C32.9454 16.4949 34.4869 15.0842 34.4869 13.9664C34.4869 13.5059 34.5109 13.2746 34.2841 12.8494C33.804 11.9532 32.9379 11.6017 31.8945 11.845C31.6632 11.4995 29.6319 9.15203 29.6319 9.11072C29.6319 8.93118 30.2937 7.79839 29.197 6.71743C27.8847 5.42313 25.8136 6.54315 25.8136 8.02675H25.8144ZM21.5717 2.13442C21.5717 3.41445 23.1454 3.98009 23.9875 3.13576C24.8131 2.30719 24.3616 0.719933 22.9388 0.719933C22.1914 0.719933 21.5717 1.37872 21.5717 2.13442ZM2.35174 2.69781L2.34648 2.71584C2.23455 3.09219 2.18272 3.30553 2.24131 3.71417C2.32695 4.30987 2.86856 5.028 3.4665 5.20679C4.23347 5.4359 4.49714 5.25937 4.95461 6.10897L7.01738 9.39241C7.62509 10.3104 6.55164 10.5966 6.71916 12.1853C6.77249 12.6894 7.08423 13.1431 6.51333 13.7343L4.77958 15.4553C4.45807 15.7941 3.74069 16.6129 3.33054 16.706C2.94818 16.7931 2.80395 16.6467 2.27962 16.7548C0.67358 17.0853 0.265686 19.0452 1.30984 20.0405C1.76281 20.4725 2.40357 20.673 3.0203 20.5649C3.66557 20.4514 4.29356 19.9842 4.49563 19.3081C4.81564 18.2384 4.28755 18.1505 4.95912 17.4512L5.79369 16.6144C5.94393 16.4686 6.07088 16.3372 6.22562 16.1959C6.61699 15.8384 7.62885 14.7011 7.9451 14.5606C8.63694 14.2526 9.04033 14.9309 10.4563 14.4472C11.6477 14.04 12.5093 12.5955 12.1488 11.199C12.0639 10.87 11.8002 10.2315 11.532 10.0662C11.3074 10.3126 11.2533 10.4448 10.9311 10.5598C10.6734 10.6507 10.3474 10.6739 10.0604 10.5342C9.7795 10.3975 9.57668 10.2052 9.46626 9.9851C9.36334 9.77928 9.31377 9.42847 9.40616 9.12048C9.1763 9.07241 9.23714 9.14753 8.81422 9.02133C8.42285 8.90414 7.92857 7.95915 7.67242 7.54374L7.25175 6.87368C7.1924 6.76701 7.16386 6.75199 7.10376 6.65433L6.55464 5.7544C6.34957 5.44341 5.97773 4.92884 5.92515 4.59832C5.83275 4.01765 6.49305 3.40544 5.76364 2.29217C4.86297 0.916744 2.74386 1.38248 2.35024 2.69856L2.35174 2.69781ZM10.1754 10.3209L10.3534 10.3742C10.7365 10.4892 11.2578 10.2075 11.3728 9.82435C11.5012 9.39317 11.49 9.07691 11.1016 8.74414C10.5397 8.26187 9.56692 8.654 9.5887 9.53064C9.59621 9.8251 9.83584 10.2195 10.1746 10.3209H10.1754ZM4.94785 14.4584C4.41 12.1583 3.98708 9.35861 3.59871 5.85056C3.67834 5.86859 3.75797 5.88586 3.83909 5.90239C3.92173 5.91967 4.02389 5.93769 4.10126 5.96999C4.24248 6.02859 4.36944 6.26521 4.43629 6.38841L4.4453 6.40568L4.70296 6.81583C4.96813 9.10696 5.29715 11.4086 5.77942 13.6329L4.94785 14.4584ZM6.67634 3.00054L16.3224 0.531384L21.0233 1.73479C20.9963 1.86474 20.982 1.99845 20.982 2.13442C20.982 2.35903 21.0181 2.57537 21.0857 2.77594L16.3216 1.556L6.59822 4.04545C6.62376 3.94629 6.64704 3.84638 6.66507 3.74347C6.70939 3.48356 6.71164 3.23717 6.67559 3.00054H6.67634ZM24.8994 2.72711L29.2571 3.84262C29.1865 4.54424 29.1159 5.21881 29.0438 5.87009C28.7425 5.70257 28.4158 5.60191 28.0807 5.56961C28.116 5.2436 28.1498 4.91758 28.1829 4.59232L24.3443 3.60976C24.3646 3.59098 24.3849 3.57145 24.4052 3.55191C24.6395 3.31679 24.8055 3.03284 24.8987 2.72636L24.8994 2.72711ZM28.3684 10.9774C28.1348 12.4302 27.8802 13.7245 27.594 14.8874L27.5647 14.9046C27.3889 14.7837 27.2124 14.6673 27.017 14.5696C26.9066 14.5148 26.7955 14.4682 26.6835 14.4299C26.7451 14.1715 26.8037 13.9131 26.8601 13.6554C27.0681 12.6984 27.2477 11.7271 27.4062 10.7483C27.6593 10.7896 27.9072 10.7851 28.1769 10.7461L28.3692 10.9774H28.3684ZM16.3224 25.2929C14.9259 24.4125 13.537 23.4922 12.2735 22.4391C11.0415 21.413 10.0266 20.3027 9.23564 18.901C8.62417 17.8178 8.17496 16.6294 7.8219 15.4185C7.95862 15.284 8.10059 15.154 8.1975 15.0947C8.37478 15.0241 8.6437 15.1142 8.81948 15.1488C9.47151 15.275 10.0191 15.2209 10.6494 15.0053C12.2261 14.466 13.1328 12.6451 12.7219 11.0525C12.6137 10.6334 12.3576 10.0227 12.009 9.69364C12.0999 9.15279 11.9572 8.70057 11.4862 8.29643C10.7989 7.70675 9.84786 7.89755 9.34456 8.51728C9.3025 8.51428 9.25893 8.51277 9.21085 8.51052C9.15902 8.50826 9.07113 8.48197 9.01179 8.46395C8.78944 8.3107 8.32295 7.46712 8.17421 7.22974L7.75955 6.5687C7.71148 6.48682 7.65664 6.42371 7.60932 6.34634L7.10226 5.51477L16.3231 3.15378L26.5032 5.76041L26.483 5.94295C25.749 6.3809 25.2255 7.15011 25.2255 8.026C25.2255 8.87635 25.3855 9.37063 25.9624 9.97233C25.7896 11.0969 25.589 12.2161 25.3479 13.3249C25.2765 13.6539 25.1999 13.9852 25.1188 14.3165C24.0085 14.499 23.0936 15.2284 22.6594 16.3094C22.2327 17.3716 22.3619 18.5847 23.0583 19.4816C22.3251 20.6159 21.4282 21.5579 20.372 22.4383C19.1078 23.4915 17.7196 24.4117 16.3231 25.2921L16.3224 25.2929Z" fill="url(#paint0_linear_9_5044)"/>
<path id="Vector_2" d="M16.3224 12.1462L15.2542 14.6372H16.3224H17.3906L16.3224 12.1462ZM16.3224 16.7736H14.3377L13.9464 17.6893H11.1377L16.3216 6.86011L21.5056 17.6893H18.6969L18.3055 16.7736H16.3209H16.3224Z" fill="white"/>
</g>
<defs>
<linearGradient id="paint0_linear_9_5044" x1="4.77207" y1="24.3779" x2="31.6602" y2="3.24844" gradientUnits="userSpaceOnUse">
<stop stop-color="#00A7FD"/>
<stop offset="1" stop-color="#00FDEF"/>
</linearGradient>
</defs>
</svg>
