<svg xmlns="http://www.w3.org/2000/svg" width="22" height="22" viewBox="0 0 22 22" fill="none">
<path fill-rule="evenodd" clip-rule="evenodd" d="M6.1507 2.38044C6.98667 2.31388 7.78033 1.98528 8.4187 1.44144C9.13977 0.826836 10.0562 0.489258 11.0037 0.489258C11.9512 0.489258 12.8676 0.826836 13.5887 1.44144C14.227 1.98559 15.0206 2.31453 15.8567 2.38144C16.8011 2.45664 17.6878 2.86585 18.3578 3.53566C19.0278 4.20547 19.4372 5.09206 19.5127 6.03644C19.5787 6.87244 19.9077 7.66644 20.4527 8.30444C21.0671 9.0256 21.4046 9.94203 21.4046 10.8894C21.4046 11.8368 21.0671 12.7533 20.4527 13.4744C19.9085 14.1127 19.5795 14.9064 19.5127 15.7424C19.4372 16.6868 19.0278 17.5734 18.3578 18.2432C17.6878 18.913 16.8011 19.3222 15.8567 19.3974C15.0206 19.4643 14.227 19.7933 13.5887 20.3374C12.8676 20.952 11.9512 21.2896 11.0037 21.2896C10.0562 21.2896 9.13977 20.952 8.4187 20.3374C7.78046 19.7932 6.98678 19.4643 6.1507 19.3974C5.20648 19.322 4.32001 18.9127 3.65022 18.2429C2.98043 17.5731 2.57113 16.6867 2.4957 15.7424C2.42885 14.9064 2.0999 14.1127 1.5557 13.4744C0.941093 12.7534 0.603516 11.8369 0.603516 10.8894C0.603516 9.94198 0.941093 9.02551 1.5557 8.30444C2.0999 7.6662 2.42885 6.87252 2.4957 6.03644C2.5709 5.09204 2.9801 4.20533 3.64991 3.53534C4.31972 2.86535 5.20632 2.4559 6.1507 2.38044ZM15.8227 9.20844C15.9479 9.08878 16.048 8.9453 16.117 8.78643C16.186 8.62756 16.2226 8.4565 16.2246 8.2833C16.2265 8.1101 16.1939 7.93825 16.1285 7.77785C16.0631 7.61745 15.9664 7.47173 15.8439 7.34925C15.7214 7.22677 15.5757 7.13 15.4153 7.06463C15.2549 6.99925 15.083 6.9666 14.9098 6.96857C14.7366 6.97054 14.5656 7.00711 14.4067 7.07612C14.2478 7.14513 14.1044 7.2452 13.9847 7.37044L9.7047 11.6504L8.0227 9.97044C7.77711 9.73581 7.44946 9.6066 7.10983 9.61047C6.7702 9.61435 6.44558 9.75098 6.20541 9.99115C5.96524 10.2313 5.8286 10.5559 5.82473 10.8956C5.82086 11.2352 5.95006 11.5629 6.1847 11.8084L8.7847 14.4084C9.02847 14.6521 9.35903 14.789 9.7037 14.789C10.0484 14.789 10.3789 14.6521 10.6227 14.4084L15.8227 9.20844Z" fill="#c40404"/>
</svg>